<svg width="150" height="150" viewBox="0 0 150 150" fill="none" xmlns="http://www.w3.org/2000/svg">
<mask id="path-1-inside-1" fill="white">
<path fill-rule="evenodd" clip-rule="evenodd" d="M75 150C116.421 150 150 116.421 150 75C150 33.5786 116.421 0 75 0C33.5786 0 0 33.5786 0 75C0 116.421 33.5786 150 75 150ZM80 125C107.614 125 130 102.614 130 75C130 47.3858 107.614 25 80 25C52.3858 25 30 47.3858 30 75C30 102.614 52.3858 125 80 125Z"/>
</mask>
<path fill-rule="evenodd" clip-rule="evenodd" d="M75 150C116.421 150 150 116.421 150 75C150 33.5786 116.421 0 75 0C33.5786 0 0 33.5786 0 75C0 116.421 33.5786 150 75 150ZM80 125C107.614 125 130 102.614 130 75C130 47.3858 107.614 25 80 25C52.3858 25 30 47.3858 30 75C30 102.614 52.3858 125 80 125Z" fill="#ADADAD"/>
<path d="M149 75C149 115.869 115.869 149 75 149V151C116.974 151 151 116.974 151 75H149ZM75 1C115.869 1 149 34.1309 149 75H151C151 33.0264 116.974 -1 75 -1V1ZM1 75C1 34.1309 34.1309 1 75 1V-1C33.0264 -1 -1 33.0264 -1 75H1ZM75 149C34.1309 149 1 115.869 1 75H-1C-1 116.974 33.0264 151 75 151V149ZM129 75C129 102.062 107.062 124 80 124V126C108.167 126 131 103.167 131 75H129ZM80 26C107.062 26 129 47.938 129 75H131C131 46.8335 108.167 24 80 24V26ZM31 75C31 47.938 52.938 26 80 26V24C51.8335 24 29 46.8335 29 75H31ZM80 124C52.938 124 31 102.062 31 75H29C29 103.167 51.8335 126 80 126V124Z" fill="black" mask="url(#path-1-inside-1)"/>
<mask id="path-3-inside-2" fill="white">
<path fill-rule="evenodd" clip-rule="evenodd" d="M65 140C100.899 140 130 110.899 130 75C130 39.1015 100.899 10 65 10C29.1015 10 0 39.1015 0 75C0 110.899 29.1015 140 65 140ZM80 125C107.614 125 130 102.614 130 75C130 47.3858 107.614 25 80 25C52.3858 25 30 47.3858 30 75C30 102.614 52.3858 125 80 125Z"/>
</mask>
<path fill-rule="evenodd" clip-rule="evenodd" d="M65 140C100.899 140 130 110.899 130 75C130 39.1015 100.899 10 65 10C29.1015 10 0 39.1015 0 75C0 110.899 29.1015 140 65 140ZM80 125C107.614 125 130 102.614 130 75C130 47.3858 107.614 25 80 25C52.3858 25 30 47.3858 30 75C30 102.614 52.3858 125 80 125Z" fill="#EFEFEF"/>
<path d="M129 75C129 110.346 100.346 139 65 139V141C101.451 141 131 111.451 131 75H129ZM65 11C100.346 11 129 39.6538 129 75H131C131 38.5492 101.451 9 65 9V11ZM1 75C1 39.6538 29.6538 11 65 11V9C28.5492 9 -1 38.5492 -1 75H1ZM65 139C29.6538 139 1 110.346 1 75H-1C-1 111.451 28.5492 141 65 141V139ZM129 75C129 102.062 107.062 124 80 124V126C108.167 126 131 103.167 131 75H129ZM80 26C107.062 26 129 47.938 129 75H131C131 46.8335 108.167 24 80 24V26ZM31 75C31 47.938 52.938 26 80 26V24C51.8335 24 29 46.8335 29 75H31ZM80 124C52.938 124 31 102.062 31 75H29C29 103.167 51.8335 126 80 126V124Z" fill="black" mask="url(#path-3-inside-2)"/>
</svg>
