<svg width="80" height="80" viewBox="0 0 80 80" fill="none" xmlns="http://www.w3.org/2000/svg">
<mask id="path-1-inside-1" fill="white">
<path fill-rule="evenodd" clip-rule="evenodd" d="M40 80C62.0914 80 80 62.0914 80 40C80 17.9086 62.0914 0 40 0C17.9086 0 0 17.9086 0 40C0 62.0914 17.9086 80 40 80ZM42.6667 66.6667C57.3943 66.6667 69.3333 54.7276 69.3333 40C69.3333 25.2724 57.3943 13.3333 42.6667 13.3333C27.9391 13.3333 16 25.2724 16 40C16 54.7276 27.9391 66.6667 42.6667 66.6667Z"/>
</mask>
<path fill-rule="evenodd" clip-rule="evenodd" d="M40 80C62.0914 80 80 62.0914 80 40C80 17.9086 62.0914 0 40 0C17.9086 0 0 17.9086 0 40C0 62.0914 17.9086 80 40 80ZM42.6667 66.6667C57.3943 66.6667 69.3333 54.7276 69.3333 40C69.3333 25.2724 57.3943 13.3333 42.6667 13.3333C27.9391 13.3333 16 25.2724 16 40C16 54.7276 27.9391 66.6667 42.6667 66.6667Z" fill="#ADADAD"/>
<path d="M79.5 40C79.5 61.8152 61.8152 79.5 40 79.5V80.5C62.3675 80.5 80.5 62.3675 80.5 40H79.5ZM40 0.5C61.8152 0.5 79.5 18.1848 79.5 40H80.5C80.5 17.6325 62.3675 -0.5 40 -0.5V0.5ZM0.5 40C0.5 18.1848 18.1848 0.5 40 0.5V-0.5C17.6325 -0.5 -0.5 17.6325 -0.5 40H0.5ZM40 79.5C18.1848 79.5 0.5 61.8152 0.5 40H-0.5C-0.5 62.3675 17.6325 80.5 40 80.5V79.5ZM68.8333 40C68.8333 54.4514 57.1181 66.1667 42.6667 66.1667V67.1667C57.6704 67.1667 69.8333 55.0037 69.8333 40H68.8333ZM42.6667 13.8333C57.1181 13.8333 68.8333 25.5485 68.8333 40H69.8333C69.8333 24.9963 57.6704 12.8333 42.6667 12.8333V13.8333ZM16.5 40C16.5 25.5485 28.2152 13.8333 42.6667 13.8333V12.8333C27.6629 12.8333 15.5 24.9963 15.5 40H16.5ZM42.6667 66.1667C28.2152 66.1667 16.5 54.4514 16.5 40H15.5C15.5 55.0037 27.6629 67.1667 42.6667 67.1667V66.1667Z" fill="black" mask="url(#path-1-inside-1)"/>
<mask id="path-3-inside-2" fill="white">
<path fill-rule="evenodd" clip-rule="evenodd" d="M69.3333 39.9644C69.3141 25.2532 57.3824 13.3333 42.6667 13.3333C27.9391 13.3333 16 25.2724 16 40C16 54.7276 27.9391 66.6667 42.6667 66.6667C57.3824 66.6667 69.3141 54.7468 69.3333 40.0356C69.3141 59.1651 53.8007 74.6667 34.6667 74.6667C15.5208 74.6667 0 59.1459 0 40C0 20.8541 15.5208 5.33333 34.6667 5.33333C53.8007 5.33333 69.3141 20.8349 69.3333 39.9644Z"/>
</mask>
<path fill-rule="evenodd" clip-rule="evenodd" d="M69.3333 39.9644C69.3141 25.2532 57.3824 13.3333 42.6667 13.3333C27.9391 13.3333 16 25.2724 16 40C16 54.7276 27.9391 66.6667 42.6667 66.6667C57.3824 66.6667 69.3141 54.7468 69.3333 40.0356C69.3141 59.1651 53.8007 74.6667 34.6667 74.6667C15.5208 74.6667 0 59.1459 0 40C0 20.8541 15.5208 5.33333 34.6667 5.33333C53.8007 5.33333 69.3141 20.8349 69.3333 39.9644Z" fill="#EFEFEF"/>
<path d="M69.3333 39.9644L68.8333 39.9651L69.8333 39.9639L69.3333 39.9644ZM69.3333 40.0356L69.8333 40.0361L68.8333 40.0349L69.3333 40.0356ZM42.6667 13.8333C57.1065 13.8333 68.8145 25.5297 68.8333 39.9651L69.8333 39.9637C69.8137 24.9767 57.6583 12.8333 42.6667 12.8333V13.8333ZM16.5 40C16.5 25.5485 28.2152 13.8333 42.6667 13.8333V12.8333C27.6629 12.8333 15.5 24.9963 15.5 40H16.5ZM42.6667 66.1667C28.2152 66.1667 16.5 54.4514 16.5 40H15.5C15.5 55.0037 27.6629 67.1667 42.6667 67.1667V66.1667ZM68.8333 40.0349C68.8145 54.4703 57.1065 66.1667 42.6667 66.1667V67.1667C57.6583 67.1667 69.8137 55.0233 69.8333 40.0362L68.8333 40.0349ZM68.8333 40.0351C68.8144 58.8887 53.5247 74.1667 34.6667 74.1667V75.1667C54.0766 75.1667 69.8138 59.4415 69.8333 40.0361L68.8333 40.0351ZM34.6667 74.1667C15.7969 74.1667 0.5 58.8697 0.5 40H-0.5C-0.5 59.422 15.2447 75.1667 34.6667 75.1667V74.1667ZM0.5 40C0.5 21.1303 15.7969 5.83333 34.6667 5.83333V4.83333C15.2447 4.83333 -0.5 20.578 -0.5 40H0.5ZM34.6667 5.83333C53.5247 5.83333 68.8144 21.1113 68.8333 39.9649L69.8333 39.9639C69.8138 20.5585 54.0766 4.83333 34.6667 4.83333V5.83333Z" fill="black" mask="url(#path-3-inside-2)"/>
</svg>
